# xmcd
#
# Track frame offsets:
#	150
#	16541
#	32811
#	48087
#	63470
#	84239
#	100146
#	114756
#	129278
#	145583
#	161202
#	178091
#	194496
#	210183
#	225551
#	240420
#	260675
#	276594
#	294708
#
# Disc length: 4130 seconds
#
# Revision: 0
# Processed by: cddbd v1.5.2PL0 Copyright (c) Steve Scherf et al.
# Submitted via: EZCDAudioConverter 4.0.9.1
#
DISCID=fe102013
DTITLE=陈慧琳 - 我疯了
DYEAR=1900
DGENRE=流行
TTITLE0=Phone杀令
TTITLE1=无限
TTITLE2=别来无恙
TTITLE3=对不起不是你
TTITLE4=念口簧
TTITLE5=洁身自爱
TTITLE6=Kelly Bag
TTITLE7=鞋呀！鞋！
TTITLE8=飞行裹数
TTITLE9=阁楼
TTITLE10=邮票
TTITLE11=杀掉旧名单
TTITLE12=美丽的新娘
TTITLE13=不要说抱歉
TTITLE14=Love Paradise
TTITLE15=亚裹爸爸
TTITLE16=嫁妆
TTITLE17=伶仃
TTITLE18=山顶既朋友
EXTD=
EXTT0=
EXTT1=
EXTT2=
EXTT3=
EXTT4=
EXTT5=
EXTT6=
EXTT7=
EXTT8=
EXTT9=
EXTT10=
EXTT11=
EXTT12=
EXTT13=
EXTT14=
EXTT15=
EXTT16=
EXTT17=
EXTT18=
PLAYORDER=
